<?xml version="1.0" encoding="iso-8859-1"?>
<!-- Uploaded to: SVG Repo, www.svgrepo.com, Generator: SVG Repo Mixer Tools -->
<!DOCTYPE svg PUBLIC "-//W3C//DTD SVG 1.1//EN" "http://www.w3.org/Graphics/SVG/1.1/DTD/svg11.dtd">
<svg fill="#000000" version="1.1" id="Capa_1" xmlns="http://www.w3.org/2000/svg" xmlns:xlink="http://www.w3.org/1999/xlink" 
	 width="800px" height="800px" viewBox="0 0 43.926 43.926"
	 xml:space="preserve">
<g>
	<g id="_x31_67_58_">
		<g>
			<path d="M35.909,18.931c0.033-0.246,0.057-0.498,0.07-0.763c-0.025-0.45-0.059-1.512-0.324-2.304
				c-0.316-0.939-0.871-1.587-0.871-1.587l2.104-1.146l-4.404-1.438l-0.721,4.25l1.928-1.062c0,0,0.488,0.597,0.746,1.358
				c0.225,0.673,0.221,1.49,0.244,1.927c-0.021,0.396-0.082,0.811-0.176,1.23l-0.148,0.792l1.002-0.003
				c4.127,0.222,7.049,3.144,7.27,7.2c-0.191,3.566-2.699,6.658-5.832,7.189l-0.48,0.082H8.389L7.908,34.59
				c-3.361-0.469-6.815-3.129-6.599-7.135c0.188-3.502,2.864-7.28,6.857-7.28c0.114,0,0.229,0.003,0.341,0.009
				c0.249,0.015,0.495,0.037,0.734,0.072l0.881,0.127l-0.147-0.878c-0.072-0.432-0.097-0.848-0.076-1.27
				c0.179-3.309,2.801-6.882,6.611-6.683c2.181,0.117,4.05,1.062,5.264,2.661l0.533,0.701l0.513-0.717
				c0.487-0.679,1.587-1.614,2.571-2.165c0.842-0.47,1.619-0.608,1.619-0.608l0.725,2.483l2.406-4.25L25.67,7.971l0.926,2.26
				c0,0-1.148,0.262-2.033,0.726c-1.021,0.532-1.823,1.308-2.288,1.84c-1.432-1.523-3.424-2.419-5.695-2.542
				c-4.628-0.232-7.767,3.991-7.979,7.914c-0.012,0.236-0.011,0.478,0.001,0.719c-0.007-0.001-0.014-0.001-0.021-0.002
				c-4.985-0.254-8.342,4.287-8.569,8.498c-0.246,4.557,3.41,7.643,7.157,8.396v0.176h29.736l0.65-0.09V35.74
				c3.461-0.871,6.158-4.336,6.371-8.355C43.678,22.752,40.516,19.417,35.909,18.931z"/>
			<polygon points="26.532,21.67 28.483,18.014 30.487,19.11 29.567,14.987 25.653,16.591 27.497,17.488 25.547,21.146 			"/>
		</g>
	</g>
</g>
</svg>