<svg width="432" height="125" viewBox="0 0 432 125" fill="none" xmlns="http://www.w3.org/2000/svg">
<mask id="mask0_1847_43" style="mask-type:luminance" maskUnits="userSpaceOnUse" x="0" y="0" width="126" height="125">
<path d="M125.143 0H0V125H125.143V0Z" fill="white"/>
</mask>
<g mask="url(#mask0_1847_43)">
<path d="M97.3098 11.4966L43.1927 3.89965C27.8507 1.74594 13.6658 12.4229 11.5096 27.7474L3.90394 81.8028C1.74776 97.1272 12.4369 111.296 27.7789 113.45L81.896 121.047C97.238 123.2 111.423 112.523 113.579 97.199L121.185 43.1437C123.341 27.8192 112.652 13.6503 97.3098 11.4966Z" fill="black" fill-opacity="0.3"/>
<path d="M85.1259 10.9819H40.0162C24.3896 10.9819 11.7217 23.6354 11.7217 39.2442V84.3024C11.7217 99.9113 24.3896 112.565 40.0162 112.565H85.1259C100.753 112.565 113.421 99.9113 113.421 84.3024V39.2442C113.421 23.6354 100.753 10.9819 85.1259 10.9819Z" fill="black"/>
<path d="M62.5311 92.2964C79.0283 92.2964 92.402 78.938 92.402 62.4596C92.402 45.9812 79.0283 32.6226 62.5311 32.6226C46.0338 32.6226 32.6602 45.9812 32.6602 62.4596C32.6602 78.938 46.0338 92.2964 62.5311 92.2964Z" stroke="white" stroke-width="1.6"/>
<path d="M73.606 54.3442C76.5751 54.3442 78.982 51.9401 78.982 48.9745C78.982 46.0087 76.5751 43.6046 73.606 43.6046C70.637 43.6046 68.23 46.0087 68.23 48.9745C68.23 51.9401 70.637 54.3442 73.606 54.3442Z" stroke="white" stroke-width="1.6"/>
<path d="M49.8638 84.0699L62.0553 61.8682L76.4023 83.607C67.0003 92.9861 54.5107 89.0738 49.8638 84.0699Z" stroke="white" stroke-width="1.6"/>
</g>
<path d="M166.303 52.9265V58.0342H147.809V52.9265H166.303ZM152.88 85.6164V49.1382C152.88 47.095 153.327 45.3997 154.222 44.0517C155.117 42.6897 156.303 41.6752 157.78 41.0084C159.257 40.3272 160.863 39.9868 162.595 39.9868C163.874 39.9868 164.968 40.0932 165.877 40.306C166.786 40.5046 167.461 40.689 167.901 40.8594L166.409 46.0098C166.111 45.9247 165.728 45.8253 165.259 45.7118C164.79 45.5841 164.222 45.5202 163.554 45.5202C162.006 45.5202 160.898 45.9033 160.23 46.6695C159.577 47.4356 159.25 48.5423 159.25 49.9896V85.6164H152.88ZM172.875 85.6164V52.9265H179.033V58.1195H179.374C179.971 56.3601 181.022 54.9767 182.529 53.9694C184.047 52.9478 185.767 52.437 187.685 52.437C188.083 52.437 188.551 52.4512 189.091 52.4796C189.645 52.508 190.078 52.5435 190.39 52.586V58.6728C190.135 58.6019 189.681 58.5238 189.027 58.4387C188.373 58.3394 187.719 58.2897 187.066 58.2897C185.561 58.2897 184.219 58.6089 183.039 59.2474C181.875 59.8717 180.951 60.7443 180.269 61.8652C179.589 62.9719 179.247 64.2346 179.247 65.6534V85.6164H172.875ZM205.135 86.3401C203.061 86.3401 201.185 85.957 199.51 85.1908C197.834 84.4104 196.505 83.2825 195.525 81.8069C194.559 80.3313 194.076 78.5223 194.076 76.3798C194.076 74.5353 194.431 73.0171 195.142 71.8253C195.852 70.6336 196.81 69.6901 198.019 68.9949C199.226 68.2997 200.575 67.7747 202.066 67.4199C203.558 67.0652 205.078 66.7956 206.626 66.6111C208.586 66.3841 210.177 66.1997 211.399 66.0579C212.621 65.9017 213.507 65.6534 214.063 65.313C214.617 64.9724 214.893 64.419 214.893 63.6529V63.5039C214.893 61.6452 214.368 60.2051 213.317 59.1836C212.28 58.162 210.732 57.6512 208.671 57.6512C206.527 57.6512 204.837 58.1265 203.601 59.0772C202.378 60.0135 201.533 61.0565 201.065 62.2056L195.077 60.8437C195.789 58.8572 196.826 57.2539 198.189 56.0337C199.567 54.7993 201.151 53.9055 202.941 53.3522C204.73 52.7846 206.613 52.5009 208.586 52.5009C209.894 52.5009 211.279 52.657 212.741 52.969C214.219 53.2671 215.597 53.8204 216.874 54.6291C218.167 55.4378 219.226 56.5942 220.049 58.0981C220.874 59.588 221.285 61.5247 221.285 63.9082V85.6164H215.064V81.1471H214.809C214.395 81.97 213.778 82.7788 212.954 83.5733C212.131 84.3678 211.071 85.0276 209.779 85.5526C208.486 86.0776 206.938 86.3401 205.135 86.3401ZM206.52 81.2322C208.281 81.2322 209.787 80.8846 211.037 80.1894C212.301 79.4942 213.259 78.5861 213.914 77.4652C214.581 76.3301 214.915 75.1171 214.915 73.8259V69.612C214.687 69.839 214.246 70.0519 213.593 70.2505C212.954 70.4349 212.223 70.5981 211.399 70.7399C210.574 70.8676 209.772 70.9882 208.992 71.1017C208.21 71.201 207.557 71.2863 207.031 71.3572C205.795 71.5132 204.665 71.7757 203.643 72.1447C202.635 72.5135 201.825 73.0456 201.214 73.7408C200.618 74.4219 200.319 75.33 200.319 76.4649C200.319 78.0399 200.902 79.2317 202.066 80.0404C203.232 80.8349 204.715 81.2322 206.52 81.2322ZM229.771 85.6164V52.9265H235.886V58.2471H236.29C236.973 56.4452 238.087 55.0406 239.637 54.0332C241.185 53.0116 243.038 52.5009 245.196 52.5009C247.385 52.5009 249.216 53.0116 250.694 54.0332C252.185 55.0548 253.286 56.4594 253.997 58.2471H254.338C255.118 56.5021 256.361 55.1115 258.067 54.0759C259.771 53.0259 261.802 52.5009 264.159 52.5009C267.129 52.5009 269.551 53.4301 271.426 55.2889C273.315 57.1476 274.26 59.9498 274.26 63.6955V85.6164H267.888V64.2914C267.888 62.0781 267.285 60.4747 266.078 59.4815C264.871 58.4884 263.429 57.9918 261.753 57.9918C259.678 57.9918 258.067 58.6303 256.915 59.9072C255.765 61.1699 255.19 62.7945 255.19 64.7808V85.6164H248.841V63.887C248.841 62.1135 248.287 60.6875 247.178 59.6092C246.07 58.531 244.629 57.9918 242.853 57.9918C241.646 57.9918 240.531 58.311 239.508 58.9495C238.5 59.5738 237.682 60.4464 237.058 61.5673C236.446 62.688 236.141 63.9863 236.141 65.462V85.6164H229.771ZM296.902 86.2762C293.679 86.2762 290.902 85.588 288.573 84.2118C286.257 82.8214 284.467 80.8704 283.203 78.3591C281.952 75.8336 281.328 72.8753 281.328 69.4842C281.328 66.1358 281.952 63.1848 283.203 60.6308C284.467 58.0769 286.229 56.0834 288.487 54.6503C290.76 53.2175 293.415 52.5009 296.455 52.5009C298.303 52.5009 300.093 52.806 301.826 53.4161C303.557 54.0262 305.114 54.9839 306.492 56.2892C307.869 57.5945 308.955 59.2901 309.751 61.3757C310.546 63.4471 310.944 65.9656 310.944 68.931V71.187H284.928V66.4197H304.701C304.701 64.7454 304.361 63.2627 303.679 61.9716C302.997 60.6663 302.038 59.6377 300.802 58.8856C299.58 58.1336 298.147 57.7577 296.498 57.7577C294.708 57.7577 293.146 58.1974 291.811 59.0772C290.489 59.9426 289.467 61.0777 288.742 62.4824C288.033 63.8728 287.678 65.3839 287.678 67.0156V70.7399C287.678 72.925 288.06 74.7837 288.828 76.3159C289.61 77.8483 290.697 79.0188 292.089 79.8276C293.481 80.6221 295.106 81.0194 296.967 81.0194C298.174 81.0194 299.275 80.8491 300.269 80.5086C301.263 80.1539 302.124 79.6289 302.847 78.9337C303.573 78.2385 304.126 77.3801 304.51 76.3586L310.539 77.444C310.056 79.2175 309.19 80.7711 307.941 82.1048C306.705 83.4243 305.15 84.4529 303.274 85.1908C301.413 85.9144 299.29 86.2762 296.902 86.2762ZM342.537 60.9075L336.763 61.9289C336.521 61.1913 336.137 60.4889 335.613 59.8221C335.102 59.1551 334.406 58.6089 333.525 58.1832C332.643 57.7577 331.543 57.5449 330.221 57.5449C328.418 57.5449 326.913 57.9491 325.704 58.7579C324.497 59.5524 323.894 60.5812 323.894 61.8438C323.894 62.9365 324.298 63.8161 325.107 64.4829C325.918 65.1498 327.225 65.6961 329.028 66.1217L334.227 67.3135C337.239 68.0087 339.483 69.08 340.961 70.5272C342.437 71.9743 343.176 73.8543 343.176 76.167C343.176 78.125 342.609 79.8702 341.472 81.4026C340.349 82.9207 338.781 84.1125 336.763 84.9779C334.761 85.8435 332.438 86.2762 329.796 86.2762C326.131 86.2762 323.141 85.4959 320.825 83.9351C318.511 82.3603 317.09 80.1255 316.563 77.2312L322.721 76.2947C323.105 77.8979 323.894 79.1111 325.087 79.9341C326.28 80.7428 327.835 81.1471 329.753 81.1471C331.841 81.1471 333.511 80.7144 334.761 79.8488C336.01 78.9692 336.634 77.8979 336.634 76.6353C336.634 75.6137 336.252 74.7553 335.484 74.0601C334.731 73.3649 333.574 72.8399 332.011 72.4851L326.472 71.2721C323.417 70.5769 321.159 69.47 319.695 67.9519C318.247 66.4337 317.523 64.5113 317.523 62.1844C317.523 60.2548 318.063 58.5664 319.142 57.1192C320.222 55.6719 321.713 54.544 323.616 53.7353C325.521 52.9123 327.701 52.5009 330.158 52.5009C333.694 52.5009 336.478 53.2671 338.51 54.7993C340.541 56.3175 341.883 58.3536 342.537 60.9075ZM350.181 97.8752V52.9265H356.402V58.2259H356.935C357.305 57.5449 357.837 56.7574 358.533 55.8635C359.229 54.9697 360.195 54.1892 361.431 53.5224C362.667 52.8414 364.299 52.5009 366.331 52.5009C368.974 52.5009 371.331 53.1678 373.406 54.5014C375.478 55.8351 377.105 57.7577 378.285 60.269C379.478 62.7803 380.074 65.8024 380.074 69.3353C380.074 72.8681 379.485 75.8974 378.305 78.4229C377.127 80.9342 375.507 82.8711 373.449 84.2331C371.388 85.581 369.038 86.255 366.396 86.255C364.407 86.255 362.781 85.9214 361.515 85.2546C360.266 84.5878 359.285 83.8074 358.575 82.9135C357.866 82.0197 357.319 81.2252 356.935 80.53H356.551V97.8752H350.181ZM356.424 69.2714C356.424 71.57 356.758 73.5848 357.425 75.3158C358.092 77.0467 359.059 78.4017 360.322 79.3806C361.587 80.3455 363.135 80.8279 364.968 80.8279C366.871 80.8279 368.462 80.3241 369.741 79.3168C371.019 78.2952 371.985 76.9118 372.638 75.1668C373.306 73.4216 373.639 71.4565 373.639 69.2714C373.639 67.1149 373.313 65.1781 372.66 63.4613C372.021 61.7445 371.054 60.3896 369.761 59.3964C368.484 58.4033 366.885 57.9067 364.968 57.9067C363.122 57.9067 361.558 58.382 360.279 59.3325C359.016 60.2832 358.058 61.6098 357.405 63.3123C356.75 65.0149 356.424 67.0014 356.424 69.2714ZM387.212 85.6164V52.9265H393.583V85.6164H387.212ZM390.428 47.8825C389.321 47.8825 388.37 47.5137 387.574 46.7759C386.793 46.024 386.402 45.13 386.402 44.0944C386.402 43.0444 386.793 42.1505 387.574 41.4127C388.37 40.6608 389.321 40.2848 390.428 40.2848C391.538 40.2848 392.482 40.6608 393.264 41.4127C394.059 42.1505 394.457 43.0444 394.457 44.0944C394.457 45.13 394.059 46.024 393.264 46.7759C392.482 47.5137 391.538 47.8825 390.428 47.8825ZM408.014 74.5283L407.971 66.7601H409.078L422.117 52.9265H429.746L414.874 68.6755H413.871L408.014 74.5283ZM402.154 85.6164V42.03H408.525V85.6164H402.154ZM422.822 85.6164L411.103 70.0801L415.491 65.6322L430.641 85.6164H422.822Z" fill="black"/>
</svg>
