<svg version="1.2" xmlns="http://www.w3.org/2000/svg" viewBox="0 0 1548 1548" width="1548" height="1548">
	<title>logo-svg</title>
	<style>
		.s0 { opacity: .3;fill: #ffffff } 
		.s1 { fill: #ffffff } 
		.s2 { fill: none;stroke: #07031c;stroke-width: 25 } 
	</style>
	<path id="Layer" class="s0" d="m142.4 343.6c26.6-189.8 202.1-322 391.9-295.3l669.4 94.1c189.8 26.6 322 202.1 295.3 391.9l-94 669.4c-26.7 189.8-202.2 322-392 295.3l-669.4-94c-189.8-26.7-322-202.2-295.3-392z"/>
	<path id="Layer" class="s1" d="m145 486c0-193.3 156.7-350 350-350h558c193.3 0 350 156.7 350 350v558c0 193.3-156.7 350-350 350h-558c-193.3 0-350-156.7-350-350z"/>
	<path id="Layer" class="s2" d="m773.5 1143c-204.3 0-369.5-165.2-369.5-369.5 0-204.3 165.2-369.5 369.5-369.5 204.3 0 369.5 165.2 369.5 369.5 0 204.3-165.2 369.5-369.5 369.5z"/>
	<path id="Layer" class="s2" d="m910.5 673c-36.8 0-66.5-29.7-66.5-66.5 0-36.8 29.7-66.5 66.5-66.5 36.8 0 66.5 29.7 66.5 66.5 0 36.8-29.7 66.5-66.5 66.5z"/>
	<path id="Layer" class="s2" d="m616.8 1041.1l150.8-274.9 177.5 269.2c-116.3 116.1-270.8 67.7-328.3 5.7z"/>
</svg>