<svg width="400" height="267" viewBox="0 0 400 267" fill="none" xmlns="http://www.w3.org/2000/svg">
<path d="M270.802 32.1336C269.335 35.4669 267.802 40.1669 267.802 40.5669C267.802 41.1002 262.302 40.0669 254.535 40.1336C243.583 40.2276 239.802 41.5669 233.468 43.2002L226.135 46.1336L223.468 42.5336C217.468 34.5336 216.268 33.3336 215.335 34.4002C214.802 34.9336 216.268 38.1336 218.535 41.3336C220.935 44.6669 222.802 47.7336 222.802 48.1336C222.802 48.5336 220.802 50.0669 218.802 52.0669C212.935 57.0002 206.668 70.8002 205.868 80.6669L205.068 89.0669L209.602 88.2669C212.135 87.8669 233.468 84.9336 257.068 81.8669L299.868 76.1336L297.735 70.8002C293.202 58.9336 282.802 47.2002 273.868 43.4669L269.602 41.7336L272.002 36.8002C275.602 29.7336 276.535 26.0002 274.802 26.0002C274.002 26.0002 272.135 28.8002 270.802 32.1336ZM276.135 48.8002C283.202 53.4669 289.868 61.4669 293.202 68.9336C294.935 73.2002 296.402 72.5336 276.802 75.8669C270.268 76.9336 258.535 78.5336 250.802 79.3336C243.068 80.2669 231.068 81.7336 224.002 82.8002C216.935 83.8669 210.668 84.6669 210.135 84.6669C208.002 84.6669 210.668 71.7336 214.135 65.3336C219.468 55.0669 224.535 50.2669 233.068 47.4669C244.402 43.6002 245.068 43.6002 257.468 43.7336C268.135 43.8669 269.202 44.1336 276.135 48.8002Z" fill="#6F6F74"/>
<path d="M152.802 59.1002C149.735 60.4336 145.735 63.3669 143.735 65.7669C139.868 70.4336 136.668 80.3002 138.402 81.9002C139.868 83.3669 148.935 80.1669 152.402 76.9669C156.002 73.9002 160.002 64.9669 160.135 60.1669C160.135 55.9002 159.735 55.9002 152.802 59.1002ZM152.535 68.1669C151.735 70.3002 147.068 75.2336 145.868 75.2336C144.402 75.2336 145.868 70.8336 148.135 68.5669C151.468 65.2336 153.735 65.1002 152.535 68.1669Z" fill="#6F6F74"/>
<path d="M308.268 81.3668C304.802 85.7668 304.802 86.7001 308.802 114.567C311.468 134.033 312.268 137.5 314.802 139.5C318.802 142.7 324.268 142.567 328.802 138.967C332.268 136.167 332.402 135.767 331.735 127.367C331.335 122.567 329.868 110.833 328.668 101.233C326.668 86.9668 325.735 83.5001 323.335 80.9668C318.935 76.5668 311.868 76.8334 308.268 81.3668ZM321.202 83.6334C322.002 84.5668 323.868 94.1668 325.335 104.967C329.602 134.567 329.068 137.9 321.202 137.9C316.402 137.9 315.202 135.5 312.935 119.633C309.602 97.2334 308.935 86.1668 310.802 83.9001C312.802 81.5001 319.335 81.2334 321.202 83.6334Z" fill="#6F6F74"/>
<path d="M248.257 94.7055C216.124 99.1055 203.324 101.239 201.057 102.972C197.724 105.239 192.791 118.039 185.457 143.505C182.257 154.439 182.124 155.505 184.124 158.439C186.657 162.305 193.991 164.039 198.257 161.772C201.191 160.172 205.057 152.572 206.924 145.105C207.724 141.239 207.724 141.239 205.191 143.505C203.724 144.839 202.257 147.639 201.724 149.772C201.324 151.905 199.724 154.972 198.257 156.439C192.791 161.905 185.457 158.172 187.057 150.572C188.657 143.239 199.724 110.572 201.591 107.639C203.591 104.439 205.191 104.039 228.257 101.105C237.057 99.9055 255.324 97.5055 268.791 95.7721C282.257 93.9055 293.724 92.8388 294.391 93.2388C294.924 93.5055 295.324 94.8388 295.324 96.1721C295.324 97.3721 296.657 108.305 298.391 120.439C299.991 132.572 301.457 147.905 301.457 154.705C301.591 166.305 301.724 166.839 303.991 164.839C307.057 161.905 307.057 160.839 301.991 122.172C297.857 90.5721 297.457 88.4388 294.924 88.5721C293.457 88.7055 272.524 91.5055 248.257 94.7055Z" fill="#6F6F74"/>
<path d="M147.702 84.8334C138.635 87.6334 138.368 87.6334 131.435 85.2334C105.435 76.4334 86.9017 97.5001 93.9684 127.633C96.6351 138.833 101.435 148.567 108.102 155.633L113.168 161.233L79.5684 160.833C49.5684 160.567 45.5684 160.7 41.5684 162.833C34.1017 166.7 32.7684 175.9 38.7684 181.9C41.1684 184.3 43.3017 184.567 56.1017 184.567H70.7684V211.9C70.7684 237.1 70.9017 239.233 73.1684 239.233C75.3017 239.233 75.4351 237.367 74.7684 211.9C73.9684 179.233 74.7684 180.7 57.0351 180.567C47.3017 180.567 45.0351 180.167 42.7684 177.9C39.3017 174.433 39.4351 170.567 43.0351 168.033C45.5684 166.3 51.1684 165.9 77.4351 165.9C103.702 165.9 109.302 165.5 111.835 163.767C113.435 162.7 114.768 160.967 114.768 159.9C114.768 158.833 111.835 153.367 108.102 147.767C100.368 136.033 98.7684 131.5 97.8351 118.167C96.2351 96.5667 109.035 83.9001 127.435 89.1001C136.502 91.7667 140.102 91.7667 150.902 88.9667C158.368 87.1001 160.635 86.9667 165.302 88.4334C171.702 90.3001 173.302 92.9667 170.368 96.3001C166.768 100.3 164.102 108.167 164.102 114.967C164.102 121.5 168.635 130.7 173.835 135.1C177.302 137.767 176.635 140.433 169.968 150.567L163.968 159.9L167.435 162.833C170.768 165.767 172.102 165.9 191.168 165.9H211.435L216.102 169.9C220.635 173.9 221.168 174.033 230.768 173.367C236.235 172.967 244.635 172.033 249.435 171.367C254.235 170.567 261.435 169.633 265.435 169.233C269.435 168.7 277.302 167.767 282.768 167.1C297.168 165.1 352.902 165.5 356.235 167.633C359.702 169.767 359.568 175.9 355.835 178.433C353.702 180.033 349.568 180.567 341.435 180.567C324.102 180.567 324.902 178.967 324.102 211.767L323.435 239.233H326.502H329.568L329.168 211.9L328.768 184.567H343.702C358.235 184.567 358.635 184.433 361.302 181.1C365.702 175.5 365.035 168.3 359.968 164.033L355.835 160.433L328.235 160.7C304.502 160.833 295.568 161.633 263.035 166.033C221.968 171.633 220.235 171.5 216.368 164.567L214.102 160.433L190.635 160.833L167.035 161.233L171.568 156.3C173.968 153.5 177.835 147.767 180.102 143.367C183.768 135.067 183.968 135.367 181.435 134.567C177.435 133.233 171.035 125.1 169.302 118.967C167.302 111.5 169.435 104.833 175.702 97.7667C181.168 91.7667 180.635 90.3001 171.968 85.9001C164.235 81.9001 157.835 81.6334 147.702 84.8334Z" fill="#6F6F74"/>
<path d="M212.535 143.9C213.335 155.367 214.402 159.233 216.268 159.233C218.002 159.233 217.602 151.767 215.468 142.833C212.802 131.367 211.602 131.767 212.535 143.9Z" fill="#6F6F74"/>
<path d="M157.602 180.3C102.802 180.567 95.335 180.833 93.335 182.7C91.2017 184.7 90.8017 188.033 90.535 212.033C90.135 237.233 90.2683 239.233 92.535 239.233C94.6683 239.233 94.8017 237.1 94.8017 211.9V184.567H200.802H306.802V211.9C306.802 237.1 306.935 239.233 309.202 239.233C311.335 239.233 311.468 237.367 310.802 211.9C310.268 192.167 309.602 184.167 308.402 182.967C307.068 181.633 297.202 181.233 265.068 181.1C242.135 181.1 222.535 180.7 221.468 180.433C220.402 180.167 191.602 180.033 157.602 180.3Z" fill="#6F6F74"/>
<path d="M232.268 187.633C232.135 188.833 239.335 209.5 241.468 214.167C246.135 224.034 261.468 220.834 261.468 209.9C261.468 204.967 254.535 186.833 253.468 188.7C252.802 189.5 253.068 192.167 253.735 194.433C258.668 209.9 258.402 214.433 252.802 215.633C247.735 216.567 244.535 213.1 240.935 202.833C238.268 194.833 232.402 184.7 232.268 187.633Z" fill="#6F6F74"/>
<path d="M271.602 189.367C265.068 211.367 266.935 219.5 278.268 219.5C285.335 219.5 287.602 216.3 290.802 202.3C294.002 187.5 294.135 186.033 291.602 188.567C290.668 189.633 288.802 194.567 287.602 199.367C284.135 213.633 283.335 215.233 279.202 215.233C271.602 215.233 270.402 212.033 273.068 199.367C274.668 192.567 274.802 189.367 273.868 188.433C272.802 187.367 272.135 187.633 271.602 189.367Z" fill="#6F6F74"/>
</svg>
