<svg version="1.1" id="Layer_1" xmlns="http://www.w3.org/2000/svg" xmlns:xlink="http://www.w3.org/1999/xlink" viewBox="0 0 512 512" xml:space="preserve" fill="#000000"><g id="SVGRepo_bgCarrier" stroke-width="0"></g><g id="SVGRepo_tracerCarrier" stroke-linecap="round" stroke-linejoin="round"></g><g id="SVGRepo_iconCarrier"> <path style="fill:#FFD155;" d="M382.987,512H129.008c-23.802,0-43.164-19.364-43.164-43.164V43.164 C85.842,19.364,105.206,0,129.008,0h253.981c23.802,0,43.164,19.364,43.164,43.164v425.671C426.153,492.636,406.789,512,382.987,512 z"></path> <path style="fill:#FFBE00;" d="M382.987,0H255.994v512h126.995c23.802,0,43.164-19.364,43.164-43.164V43.164 C426.153,19.364,406.789,0,382.987,0z"></path> <path style="fill:#FFE49C;" d="M426.151,402.923H85.844V98.263h340.308L426.151,402.923L426.151,402.923z"></path> <rect x="255.997" y="98.267" style="fill:#FFD155;" width="170.159" height="304.665"></rect> <g> <circle style="fill:#FFE49C;" cx="255.997" cy="457.466" r="21.081"></circle> <path style="fill:#FFE49C;" d="M300.112,67.862h-88.229c-10.345,0-18.732-8.387-18.732-18.732s8.387-18.732,18.732-18.732h88.229 c10.345,0,18.732,8.387,18.732,18.732C318.844,59.476,310.457,67.862,300.112,67.862z"></path> </g> <path style="fill:#FFD155;" d="M349.736,348.859H162.259c-10.345,0-18.732-8.387-18.732-18.732v-159.07 c0-10.345,8.387-18.732,18.732-18.732h187.476c10.345,0,18.732,8.387,18.732,18.732v159.07 C368.468,340.473,360.081,348.859,349.736,348.859z"></path> <path style="fill:#FFE49C;" d="M231.189,284.065l-17.328-17.328c-7.315-7.315-7.315-19.175,0-26.49 c7.314-7.315,19.175-7.315,26.49,0l4.084,4.084l27.21-27.21c7.314-7.313,19.175-7.315,26.49,0.001c7.315,7.315,7.315,19.175,0,26.49 l-40.456,40.454C250.364,291.379,238.503,291.38,231.189,284.065z"></path> <g> <path style="fill:#FFD155;" d="M255.997,436.381c-0.001,0-0.003,0-0.004,0v42.16c0.001,0,0.002,0,0.004,0 c11.642,0,21.081-9.438,21.081-21.081C277.078,445.82,267.64,436.381,255.997,436.381z"></path> <path style="fill:#FFD155;" d="M300.112,30.399h-44.118v37.463h44.118c10.345,0,18.732-8.387,18.732-18.732 S310.457,30.399,300.112,30.399z"></path> </g> <path style="fill:#FFBE00;" d="M349.736,152.325h-93.742v196.533h93.742c10.345,0,18.732-8.387,18.732-18.732V171.058 C368.468,160.712,360.081,152.325,349.736,152.325z"></path> <path style="fill:#FFD155;" d="M298.134,217.12c-7.314-7.315-19.175-7.314-26.49-0.001l-15.651,15.65v52.773 c0.582-0.458,1.149-0.943,1.686-1.479l40.455-40.454C305.45,236.295,305.45,224.436,298.134,217.12z"></path> </g></svg>  