<svg width="146" height="146" viewBox="0 0 146 146" fill="none" xmlns="http://www.w3.org/2000/svg">
<path d="M93.9 47.0001V17.4001C93.8659 16.1031 93.3219 14.8717 92.3859 13.9732C91.4499 13.0746 90.1974 12.5813 88.9 12.6001H30.13C28.8326 12.5813 27.5801 13.0746 26.6441 13.9732C25.7081 14.8717 25.1641 16.1031 25.13 17.4001V127.8C25.1641 129.097 25.7081 130.329 26.6441 131.227C27.5801 132.126 28.8326 132.619 30.13 132.6H88.86C90.1574 132.619 91.4099 132.126 92.3459 131.227C93.2819 130.329 93.8259 129.097 93.86 127.8V95.8001" fill="white"/>
<path d="M86.7099 95.3998V111.4C86.7073 111.507 86.6836 111.614 86.6399 111.712C86.5963 111.811 86.5337 111.9 86.4557 111.974C86.3777 112.048 86.2858 112.106 86.1853 112.145C86.0848 112.184 85.9776 112.202 85.8699 112.2H35.5299C35.4222 112.202 35.3151 112.184 35.2146 112.145C35.1141 112.106 35.0222 112.048 34.9442 111.974C34.8662 111.9 34.8036 111.811 34.76 111.712C34.7163 111.614 34.6925 111.507 34.6899 111.4V29.7998C34.6925 29.6921 34.7163 29.5859 34.76 29.4874C34.8036 29.3889 34.8662 29.3 34.9442 29.2257C35.0222 29.1514 35.1141 29.0932 35.2146 29.0545C35.3151 29.0157 35.4222 28.9971 35.5299 28.9998H85.8699C85.9776 28.9971 86.0848 29.0157 86.1853 29.0545C86.2858 29.0932 86.3777 29.1514 86.4557 29.2257C86.5337 29.3 86.5963 29.3889 86.6399 29.4874C86.6836 29.5859 86.7073 29.6921 86.7099 29.7998V45.7998H59.8599C59.5369 45.7918 59.2154 45.8475 58.9139 45.9639C58.6123 46.0802 58.3367 46.2548 58.1027 46.4776C57.8687 46.7005 57.6808 46.9673 57.55 47.2628C57.4191 47.5583 57.3477 47.8767 57.3399 48.1998V92.9998C57.3477 93.3228 57.4191 93.6412 57.55 93.9367C57.6808 94.2322 57.8687 94.499 58.1027 94.7219C58.3367 94.9448 58.6123 95.1194 58.9139 95.2357C59.2154 95.352 59.5369 95.4077 59.8599 95.3998H86.7099Z" fill="#6C6EFB"/>
<path d="M59.5 124.6C60.8255 124.6 61.9 123.525 61.9 122.2C61.9 120.874 60.8255 119.8 59.5 119.8C58.1745 119.8 57.1 120.874 57.1 122.2C57.1 123.525 58.1745 124.6 59.5 124.6Z" fill="#515F76"/>
<path d="M52.7 21.7998H67.9" stroke="#515F76" stroke-width="2.4" stroke-miterlimit="10" stroke-linecap="round"/>
<path d="M85.87 28.9998H35.53C35.07 28.9998 34 29.3598 34 29.7998V32.9998H87V29.7998C86.9255 29.5609 86.7746 29.3532 86.5704 29.2086C86.3661 29.064 86.12 28.9906 85.87 28.9998Z" fill="#85BEE1"/>
<path d="M123.5 105.8V111.4" stroke="#515F76" stroke-width="2.4" stroke-miterlimit="10" stroke-linecap="round"/>
<path d="M126.3 108.6H120.7" stroke="#515F76" stroke-width="2.4" stroke-miterlimit="10" stroke-linecap="round"/>
<path d="M79.3 1.3999L82.5 4.5999" stroke="#EA9080" stroke-width="1.6" stroke-miterlimit="10" stroke-linecap="round"/>
<path d="M82.5 1.3999L79.3 4.5999" stroke="#EA9080" stroke-width="1.6" stroke-miterlimit="10" stroke-linecap="round"/>
<path d="M17.1 144.6C17.9837 144.6 18.7 143.884 18.7 143C18.7 142.116 17.9837 141.4 17.1 141.4C16.2163 141.4 15.5 142.116 15.5 143C15.5 143.884 16.2163 144.6 17.1 144.6Z" fill="#B8B9BA"/>
<path d="M31.9 144.6C33.0046 144.6 33.9 143.705 33.9 142.6C33.9 141.496 33.0046 140.6 31.9 140.6C30.7955 140.6 29.9 141.496 29.9 142.6C29.9 143.705 30.7955 144.6 31.9 144.6Z" stroke="#B8B9BA" stroke-width="1.6" stroke-miterlimit="10" stroke-linecap="round"/>
<path d="M99.5 7.8001C100.384 7.8001 101.1 7.08375 101.1 6.2001C101.1 5.31644 100.384 4.6001 99.5 4.6001C98.6164 4.6001 97.9 5.31644 97.9 6.2001C97.9 7.08375 98.6164 7.8001 99.5 7.8001Z" fill="#B8B9BA"/>
<path d="M13.52 124.35L15.71 123.2C15.7364 123.186 15.7661 123.181 15.7957 123.183C15.8253 123.186 15.8535 123.196 15.8774 123.214C15.9013 123.232 15.9198 123.256 15.9308 123.283C15.9419 123.311 15.945 123.341 15.94 123.37L15.52 125.8L17.29 127.52C17.3105 127.541 17.3249 127.567 17.3315 127.596C17.3381 127.625 17.3367 127.654 17.3274 127.682C17.3181 127.71 17.3013 127.735 17.2788 127.754C17.2563 127.773 17.229 127.785 17.2 127.79L14.76 128.15L13.67 130.36C13.6571 130.388 13.6366 130.411 13.6109 130.427C13.5852 130.444 13.5554 130.452 13.525 130.452C13.4945 130.452 13.4647 130.444 13.439 130.427C13.4133 130.411 13.3928 130.388 13.38 130.36L12.29 128.15L9.84997 127.79C9.8209 127.785 9.79363 127.773 9.77115 127.754C9.74868 127.735 9.73187 127.71 9.72257 127.682C9.71327 127.654 9.71184 127.625 9.71843 127.596C9.72503 127.567 9.7394 127.541 9.75997 127.52L11.53 125.8L11.11 123.37C11.1049 123.341 11.1081 123.311 11.1191 123.283C11.1302 123.256 11.1487 123.232 11.1725 123.214C11.1964 123.196 11.2247 123.186 11.2543 123.183C11.2838 123.181 11.3135 123.186 11.34 123.2L13.52 124.35Z" fill="#A8CBEB"/>
<path d="M103.9 21.3999C105.005 21.3999 105.9 20.5045 105.9 19.3999C105.9 18.2953 105.005 17.3999 103.9 17.3999C102.795 17.3999 101.9 18.2953 101.9 19.3999C101.9 20.5045 102.795 21.3999 103.9 21.3999Z" stroke="#B8B9BA" stroke-width="1.6" stroke-miterlimit="10" stroke-linecap="round"/>
<path d="M134.7 103C135.584 103 136.3 102.283 136.3 101.4C136.3 100.516 135.584 99.7998 134.7 99.7998C133.816 99.7998 133.1 100.516 133.1 101.4C133.1 102.283 133.816 103 134.7 103Z" fill="#B8B9BA"/>
<path d="M59.9 96.1999C59.2634 96.1999 58.653 95.947 58.2029 95.497C57.7528 95.0469 57.5 94.4364 57.5 93.7999V51.3999H55.0999C54.4634 51.3999 53.853 51.6528 53.4029 52.1028C52.9528 52.5529 52.7 53.1634 52.7 53.7999V98.5999C52.7 99.2364 52.9528 99.8469 53.4029 100.297C53.853 100.747 54.4634 101 55.0999 101H94.3V96.1999H59.9Z" fill="#C3C7CD"/>
<path d="M86.3 96.1999H59.9C59.2634 96.1999 58.653 95.947 58.2029 95.497C57.7528 95.0469 57.5 94.4364 57.5 93.7999V51.3999H55.0999C54.4634 51.3999 53.853 51.6528 53.4029 52.1028C52.9528 52.5529 52.7 53.1634 52.7 53.7999V98.5999C52.7 99.2364 52.9528 99.8469 53.4029 100.297C53.853 100.747 54.4634 101 55.0999 101H86.3L85.5 96.1999H86.3Z" fill="#85BEE1"/>
<path d="M85.5 96.1998V111.4C85.4974 111.507 85.4736 111.614 85.43 111.712C85.3864 111.811 85.3238 111.9 85.2458 111.974C85.1678 112.048 85.0759 112.106 84.9754 112.145C84.8749 112.184 84.7677 112.202 84.66 112.2H34.34C34.2323 112.202 34.1251 112.184 34.0246 112.145C33.9241 112.106 33.8323 112.048 33.7542 111.974C33.6762 111.9 33.6136 111.811 33.57 111.712C33.5264 111.614 33.5026 111.507 33.5 111.4V29.7998C33.5026 29.6921 33.5264 29.5859 33.57 29.4874C33.6136 29.3889 33.6762 29.3 33.7542 29.2257C33.8323 29.1514 33.9241 29.0932 34.0246 29.0545C34.1251 29.0157 34.2323 28.9971 34.34 28.9998H84.66C84.7677 28.9971 84.8749 29.0157 84.9754 29.0545C85.0759 29.0932 85.1678 29.1514 85.2458 29.2257C85.3238 29.3 85.3864 29.3889 85.43 29.4874C85.4736 29.5859 85.4974 29.6921 85.5 29.7998V46.5998" stroke="#515F76" stroke-width="2.4" stroke-miterlimit="10"/>
<path d="M95.1 47.4002V17.8002C95.0743 17.1425 94.919 16.4964 94.643 15.8989C94.367 15.3014 93.9758 14.7643 93.4917 14.3183C93.0077 13.8724 92.4404 13.5264 91.8223 13.3002C91.2042 13.074 90.5476 12.972 89.89 13.0002H29.11C28.4525 12.972 27.7958 13.074 27.1778 13.3002C26.5597 13.5264 25.9924 13.8724 25.5083 14.3183C25.0243 14.7643 24.633 15.3014 24.357 15.8989C24.0811 16.4964 23.9257 17.1425 23.9 17.8002V128.2C23.9257 128.858 24.0811 129.504 24.357 130.101C24.633 130.699 25.0243 131.236 25.5083 131.682C25.9924 132.128 26.5597 132.474 27.1778 132.7C27.7958 132.926 28.4525 133.028 29.11 133H89.89C90.5476 133.028 91.2042 132.926 91.8223 132.7C92.4404 132.474 93.0077 132.128 93.4917 131.682C93.9758 131.236 94.367 130.699 94.643 130.101C94.919 129.504 95.0743 128.858 95.1 128.2V96.2002" stroke="#515F76" stroke-width="2.4" stroke-miterlimit="10"/>
<rect x="59" y="48" width="70" height="47" rx="1" fill="#EA9080"/>
<path d="M75.8561 62.5168C75.2171 62.1309 74.6942 62.4259 74.6942 63.1725V77.8315C74.6942 78.578 75.2153 78.8701 75.8521 78.4806L87.8293 71.1554C88.4662 70.7659 88.4644 70.1314 87.8254 69.7455L75.8561 62.5168Z" fill="#FFD41D"/>
<path d="M75.2327 78.6468C75.4121 78.6713 75.6246 78.6195 75.8521 78.4804L85.028 72.8684L82.7937 70.4751L75.2327 78.6468Z" fill="#D50707"/>
<path d="M85.0307 68.0575L75.8561 62.5166C75.6195 62.3738 75.3991 62.3245 75.215 62.3566L82.7937 70.4751L85.0307 68.0575Z" fill="#1EB615"/>
<path d="M75.215 62.3564C74.9018 62.4111 74.6942 62.7019 74.6942 63.1721V77.8312C74.6942 78.3111 74.9097 78.6028 75.2327 78.6467L82.7938 70.475L75.215 62.3564Z" fill="#0084FF"/>
<path d="M88.0048 69.4484L76.0355 62.2196C75.7941 62.0739 75.5554 62 75.3259 62C74.8388 62 74.3473 62.3625 74.3473 63.1722V77.8312C74.3473 78.6386 74.8358 78.9999 75.3199 79C75.3199 79 75.32 79 75.32 79C75.5506 79 75.7905 78.9247 76.0331 78.7764L88.0104 71.4512C88.4197 71.2008 88.6539 70.8352 88.6528 70.4479C88.6517 70.0608 88.4156 69.6964 88.0048 69.4484ZM75.0412 77.8312V63.1722C75.0412 63.0549 75.0576 62.8858 75.1387 62.7832L82.3202 70.4761L75.1473 78.2283C75.0545 78.1213 75.0412 77.9306 75.0412 77.8312ZM82.7949 70.9847L84.4843 72.7944L76.7356 77.5334L82.7949 70.9847ZM82.7927 69.9655L76.6844 63.4222L84.4869 68.1343L82.7927 69.9655ZM87.6484 70.8593L85.0885 72.4249L83.2674 70.474L85.0933 68.5006L87.6461 70.0423C87.8445 70.1622 87.9585 70.3107 87.9589 70.4499C87.9593 70.5891 87.8461 70.7383 87.6484 70.8593Z" fill="black"/>
<path d="M76.1098 67.8818C75.9181 67.8818 75.7628 68.0372 75.7628 68.2288V68.3807C75.7628 68.5723 75.9181 68.7277 76.1098 68.7277C76.3014 68.7277 76.4567 68.5723 76.4567 68.3807V68.2288C76.4567 68.0372 76.3014 67.8818 76.1098 67.8818Z" fill="black"/>
<path d="M76.1098 69.1318C75.9181 69.1318 75.7628 69.2872 75.7628 69.4788V72.7747C75.7628 72.9663 75.9181 73.1217 76.1098 73.1217C76.3014 73.1217 76.4567 72.9663 76.4567 72.7747V69.4788C76.4567 69.2872 76.3014 69.1318 76.1098 69.1318Z" fill="black"/>
<path d="M117.687 62H103.312C102.519 62 101.875 62.6716 101.875 63.5V78.5C101.875 79.3285 102.519 80 103.312 80H117.687C118.481 80 119.125 79.3285 119.125 78.5V63.5C119.125 62.6716 118.481 62 117.687 62Z" fill="#2F88FF" stroke="black"/>
<path d="M112.417 65.5L109.302 71L108.523 72.375L108.134 73.0625" stroke="white" stroke-linecap="round" stroke-linejoin="round"/>
<path d="M106.188 76.5L106.577 75.8125" stroke="white" stroke-linecap="round" stroke-linejoin="round"/>
<path d="M104.75 73.5H110.021" stroke="white" stroke-linecap="round" stroke-linejoin="round"/>
<path d="M113.375 73.5H116.25" stroke="white" stroke-linecap="round" stroke-linejoin="round"/>
<path d="M108.104 65.5L109.781 68.25L110.2 68.9375" stroke="white" stroke-linecap="round" stroke-linejoin="round"/>
<path d="M114.812 76.5L113.135 73.75L112.297 72.375L111.878 71.6875" stroke="white" stroke-linecap="round" stroke-linejoin="round"/>
<path d="M127.1 46.6001H59.9C58.5745 46.6001 57.5 47.6746 57.5 49.0001V93.8001C57.5 95.1256 58.5745 96.2001 59.9 96.2001H127.1C128.425 96.2001 129.5 95.1256 129.5 93.8001V49.0001C129.5 47.6746 128.425 46.6001 127.1 46.6001Z" stroke="#515F76" stroke-width="2.4" stroke-miterlimit="10"/>
</svg>
