<!DOCTYPE svg PUBLIC "-//W3C//DTD SVG 1.1//EN" "http://www.w3.org/Graphics/SVG/1.1/DTD/svg11.dtd">
<!-- Uploaded to: SVG Repo, www.svgrepo.com, Transformed by: SVG Repo Mixer Tools -->
<svg fill="#4441cf" height="800px" width="800px" version="1.1" id="Layer_1" xmlns="http://www.w3.org/2000/svg" xmlns:xlink="http://www.w3.org/1999/xlink" viewBox="0 0 512 512" xml:space="preserve" stroke="#4441cf">
<g id="SVGRepo_bgCarrier" stroke-width="0"/>
<g id="SVGRepo_tracerCarrier" stroke-linecap="round" stroke-linejoin="round"/>
<g id="SVGRepo_iconCarrier"> <g> <g> <path d="M81.067,34.133c-14.507,0-25.6-11.093-25.6-25.6c0-5.12-3.413-8.533-8.533-8.533C41.813,0,38.4,3.413,38.4,8.533 c0,14.507-11.093,25.6-25.6,25.6c-5.12,0-8.533,3.413-8.533,8.533S7.68,51.2,12.8,51.2c14.507,0,25.6,11.093,25.6,25.6 c0,5.12,3.413,8.533,8.533,8.533c5.12,0,8.533-3.413,8.533-8.533c0-14.507,11.093-25.6,25.6-25.6c5.12,0,8.533-3.413,8.533-8.533 S86.187,34.133,81.067,34.133z M46.933,51.2c-2.56-3.413-5.12-5.973-8.533-8.533c3.413-2.56,5.973-5.12,8.533-8.533 c2.56,3.413,5.12,5.973,8.533,8.533C52.053,45.227,49.493,47.787,46.933,51.2z"/> </g> </g> <g> <g> <path d="M482.133,136.533H473.6V128c0-5.12-3.413-8.533-8.533-8.533s-8.533,3.413-8.533,8.533v8.533H448 c-5.12,0-8.533,3.413-8.533,8.533c0,5.12,3.413,8.533,8.533,8.533h8.533v8.533c0,5.12,3.413,8.533,8.533,8.533 s8.533-3.413,8.533-8.533V153.6h8.533c5.12,0,8.533-3.413,8.533-8.533C490.667,139.947,487.253,136.533,482.133,136.533z"/> </g> </g> <g> <g> <path d="M64,366.933c-5.12,0-8.533,3.413-8.533,8.533S58.88,384,64,384s8.533-3.413,8.533-8.533S69.12,366.933,64,366.933z"/> </g> </g> <g> <g> <path d="M21.333,213.333c-5.12,0-8.533,3.413-8.533,8.533s3.413,8.533,8.533,8.533s8.533-3.413,8.533-8.533 S26.453,213.333,21.333,213.333z"/> </g> </g> <g> <g> <path d="M439.467,298.667c-5.12,0-8.533,3.413-8.533,8.533s3.413,8.533,8.533,8.533S448,312.32,448,307.2 S444.587,298.667,439.467,298.667z"/> </g> </g> <g> <g> <path d="M499.2,477.867c-5.12,0-8.533,3.413-8.533,8.533s3.413,8.533,8.533,8.533s8.533-3.413,8.533-8.533 S504.32,477.867,499.2,477.867z"/> </g> </g> <g> <g> <path d="M260.267,452.267c-9.387,0-17.067,7.68-17.067,17.067s7.68,17.067,17.067,17.067c9.387,0,17.067-7.68,17.067-17.067 S269.653,452.267,260.267,452.267z"/> </g> </g> <g> <g> <path d="M371.2,0H149.333C130.56,0,115.2,15.36,115.2,34.133V51.2h290.133V34.133C405.333,15.36,389.973,0,371.2,0z M226.133,34.133H217.6c-5.12,0-8.533-3.413-8.533-8.533s3.413-8.533,8.533-8.533h8.533c5.12,0,8.533,3.413,8.533,8.533 S231.253,34.133,226.133,34.133z M294.4,34.133h-42.667c-5.12,0-8.533-3.413-8.533-8.533s3.413-8.533,8.533-8.533H294.4 c5.12,0,8.533,3.413,8.533,8.533S299.52,34.133,294.4,34.133z"/> </g> </g> <g> <g> <path d="M282.453,443.733c7.68,5.973,11.947,15.36,11.947,25.6c0,18.773-15.36,34.133-34.133,34.133s-34.133-15.36-34.133-34.133 c0-10.24,4.267-19.627,11.947-25.6H115.2v34.133c0,18.773,15.36,34.133,34.133,34.133H371.2c18.773,0,34.133-15.36,34.133-34.133 v-34.133H282.453z"/> </g> </g> <g> <g> <polygon points="268.8,162.133 268.8,269.653 305.493,232.96 317.44,244.907 260.267,302.08 203.093,244.907 215.04,232.96 251.733,269.653 251.733,162.133 174.933,162.133 174.933,332.8 345.6,332.8 345.6,162.133 "/> </g> </g> <g> <g> <path d="M115.2,68.267V76.8c-5.12,0-8.533,3.413-8.533,8.533v8.533c0,5.12,3.413,8.533,8.533,8.533v8.533 c-5.12,0-8.533,3.413-8.533,8.533V128c0,5.12,3.413,8.533,8.533,8.533v8.533c-5.12,0-8.533,3.413-8.533,8.533v8.533 c0,5.12,3.413,8.533,8.533,8.533v256h290.133v-358.4H115.2z M362.667,349.867h-204.8v-204.8h204.8V349.867z"/> </g> </g> </g>
</svg>