<svg height="200px" width="200px" version="1.1" id="Layer_1" xmlns="http://www.w3.org/2000/svg" xmlns:xlink="http://www.w3.org/1999/xlink" viewBox="0 0 512 512" xml:space="preserve" fill="#000000"><g id="SVGRepo_bgCarrier" stroke-width="0"></g><g id="SVGRepo_tracerCarrier" stroke-linecap="round" stroke-linejoin="round"></g><g id="SVGRepo_iconCarrier"> <path style="fill:#7fcc72;" d="M472.178,477.38H39.822C17.864,477.38,0,459.515,0,437.557V136.772 c0-9.425,7.641-17.067,17.067-17.067h477.867c9.425,0,17.067,7.641,17.067,17.067v300.785 C512,459.515,494.136,477.38,472.178,477.38z"></path> <path style="fill:#499f78;" d="M494.933,119.706H256V477.38h216.178c21.958,0,39.822-17.864,39.822-39.822V136.772 C512,127.347,504.359,119.706,494.933,119.706z"></path> <path style="fill:#206968;" d="M512,153.839H0V74.443C0,52.449,17.829,34.62,39.822,34.62h432.356 C494.171,34.62,512,52.449,512,74.443V153.839z"></path> <g> <circle style="fill:#7fcc72;" cx="71.805" cy="94.231" r="12.836"></circle> <circle style="fill:#7fcc72;" cx="112.959" cy="94.231" r="12.836"></circle> <circle style="fill:#7fcc72;" cx="154.112" cy="94.231" r="12.836"></circle> </g> <path style="fill:#206968;" d="M512,74.443c0-21.993-17.829-39.822-39.822-39.822H256v119.219h256V74.443z"></path> <path style="fill:#499f78;" d="M410.49,458.611H101.51c-9.425,0-17.067-7.641-17.067-17.067v-251.87 c0-9.425,7.641-17.067,17.067-17.067h308.978c9.425,0,17.067,7.641,17.067,17.067v251.87 C427.556,450.97,419.915,458.611,410.49,458.611z"></path> <path style="fill:#7fcc72;" d="M410.49,172.608H256v286.003h154.49c9.425,0,17.067-7.641,17.067-17.067v-251.87 C427.556,180.249,419.915,172.608,410.49,172.608z"></path> <g> <path style="fill:#7fcc72;" d="M232.07,307.164h-82.166c-8.754,0-15.85-7.096-15.85-15.85v-60.879c0-8.754,7.096-15.85,15.85-15.85 h82.166c8.754,0,15.85,7.096,15.85,15.85v60.879C247.921,300.067,240.824,307.164,232.07,307.164z"></path> <path style="fill:#7fcc72;" d="M232.07,416.635h-82.166c-8.754,0-15.85-7.096-15.85-15.85v-60.879c0-8.754,7.096-15.85,15.85-15.85 h82.166c8.754,0,15.85,7.096,15.85,15.85v60.879C247.921,409.539,240.824,416.635,232.07,416.635z"></path> </g> <g> <path style="fill:#499f78;" d="M362.095,307.164H279.93c-8.754,0-15.85-7.096-15.85-15.85v-60.879c0-8.754,7.096-15.85,15.85-15.85 h82.166c8.754,0,15.85,7.096,15.85,15.85v60.879C377.945,300.067,370.848,307.164,362.095,307.164z"></path> <path style="fill:#499f78;" d="M362.095,416.635H279.93c-8.754,0-15.85-7.096-15.85-15.85v-60.879c0-8.754,7.096-15.85,15.85-15.85 h82.166c8.754,0,15.85,7.096,15.85,15.85v60.879C377.945,409.539,370.848,416.635,362.095,416.635z"></path> </g> </g></svg>