<svg width="150" height="150" viewBox="0 0 150 150" fill="none" xmlns="http://www.w3.org/2000/svg">
<rect width="150" height="150" rx="75" fill="white"/>
<mask id="mask0_22_8" style="mask-type:luminance" maskUnits="userSpaceOnUse" x="29" y="29" width="91" height="92">
<path d="M120 29H29V120.808H120V29Z" fill="white"/>
</mask>
<g mask="url(#mask0_22_8)">
<path d="M99.7611 37.4436L60.4089 31.864C49.2526 30.2821 38.9377 38.124 37.3699 49.3793L31.8392 89.0809C30.2714 100.336 38.0442 110.743 49.2004 112.325L88.5527 117.904C99.7089 119.486 110.024 111.644 111.592 100.389L117.122 60.6872C118.69 49.432 110.917 39.0255 99.7611 37.4436Z" fill="black" fill-opacity="0.3"/>
<path d="M90.9012 37.0654H58.0988C46.7356 37.0654 37.5239 46.3589 37.5239 57.8229V90.9165C37.5239 102.381 46.7356 111.674 58.0988 111.674H90.9012C102.264 111.674 111.476 102.381 111.476 90.9165V57.8229C111.476 46.3589 102.264 37.0654 90.9012 37.0654Z" fill="black"/>
<path d="M74.4708 96.7876C86.4671 96.7876 96.192 86.9764 96.192 74.8736C96.192 62.7708 86.4671 52.9595 74.4708 52.9595C62.4745 52.9595 52.7495 62.7708 52.7495 74.8736C52.7495 86.9764 62.4745 96.7876 74.4708 96.7876Z" stroke="white"/>
<path d="M82.5245 68.9137C84.6836 68.9137 86.4338 67.1479 86.4338 64.9698C86.4338 62.7916 84.6836 61.0259 82.5245 61.0259C80.3656 61.0259 78.6152 62.7916 78.6152 64.9698C78.6152 67.1479 80.3656 68.9137 82.5245 68.9137Z" stroke="white"/>
<path d="M65.2598 90.7458L74.125 74.4395L84.5577 90.4058C77.7209 97.2944 68.6389 94.421 65.2598 90.7458Z" stroke="white"/>
</g>
</svg>
