<svg fill="#fff" viewBox="0 0 24 24" xmlns="http://www.w3.org/2000/svg" stroke="#fff" stroke-width="0.00024000000000000003"><g id="SVGRepo_bgCarrier" stroke-width="0"></g><g id="SVGRepo_tracerCarrier" stroke-linecap="round" stroke-linejoin="round"></g><g id="SVGRepo_iconCarrier"><path fill-rule="evenodd" d="M5.75 21a1.75 1.75 0 110-3.5 1.75 1.75 0 010 3.5zM2.5 19.25a3.25 3.25 0 106.5 0 3.25 3.25 0 00-6.5 0zM5.75 6.5a1.75 1.75 0 110-3.5 1.75 1.75 0 010 3.5zM2.5 4.75a3.25 3.25 0 106.5 0 3.25 3.25 0 00-6.5 0zM18.25 15a1.75 1.75 0 110-3.5 1.75 1.75 0 010 3.5zM15 13.25a3.25 3.25 0 106.5 0 3.25 3.25 0 00-6.5 0z"></path><path fill-rule="evenodd" d="M6.5 7.25c0 2.9 2.35 5.25 5.25 5.25h4.5V14h-4.5A6.75 6.75 0 015 7.25h1.5z"></path><path fill-rule="evenodd" d="M5.75 16.75A.75.75 0 006.5 16V8A.75.75 0 005 8v8c0 .414.336.75.75.75z"></path></g></svg>