<svg width="50" height="50" viewBox="0 0 50 50" fill="none" xmlns="http://www.w3.org/2000/svg">
<g clip-path="url(#clip0_94_42)">
<path d="M7.6875 0C6.73047 0 5.96875 0.660156 5.8125 1.59375L0.09375 35.4062C0.0351563 35.5938 0 35.7969 0 36V48C0 49.0938 0.90625 50 2 50H48C49.0938 50 50 49.0938 50 48V36C50 35.7031 49.9336 35.4102 49.8125 35.1562L44.1875 1.59375C44.0312 0.660156 43.2695 0 42.3125 0H7.6875ZM7.78125 2H42.2188L47.5938 34H2.375L7.78125 2ZM25 7C20.9453 7 17.2617 8.17578 14.5312 10.125C11.8008 12.0742 10 14.8594 10 18C10 21.1406 11.8008 23.9258 14.5312 25.875C17.2617 27.8242 20.9453 29 25 29C29.0547 29 32.7383 27.8242 35.4688 25.875C38.1992 23.9258 40 21.1406 40 18C40 14.8594 38.1992 12.0742 35.4688 10.125C32.7383 8.17578 29.0547 7 25 7ZM25 9C28.668 9 31.9727 10.0781 34.3125 11.75C36.6523 13.4219 38 15.6172 38 18C38 20.3828 36.6523 22.5781 34.3125 24.25C31.9727 25.9219 28.668 27 25 27C21.332 27 18.0273 25.9219 15.6875 24.25C13.3477 22.5781 12 20.3828 12 18C12 15.6172 13.3477 13.4219 15.6875 11.75C18.0273 10.0781 21.332 9 25 9ZM25 15C23.3438 15 22 15.8945 22 17C22 18.1055 23.3438 19 25 19C26.6562 19 28 18.1055 28 17C28 15.8945 26.6562 15 25 15ZM2 36H47.9688C47.9766 36.0195 47.9883 36.043 48 36.0625V48H2V36ZM40 40C38.8945 40 38 40.8945 38 42C38 43.1055 38.8945 44 40 44C41.1055 44 42 43.1055 42 42C42 40.8945 41.1055 40 40 40Z" fill="black"/>
</g>
<defs>
<clipPath id="clip0_94_42">
<rect width="50" height="50" fill="white"/>
</clipPath>
</defs>
</svg>
