<svg width="100" height="100" viewBox="0 0 100 100" fill="none" xmlns="http://www.w3.org/2000/svg">
<path opacity="0.35" d="M22.5 94C17.813 94 14 90.187 14 85.5V55.0596C14 53.7646 14.3818 52.5107 15.1045 51.4346L22 41.2017V17.5C22 12.813 25.813 9 30.5 9H80.5C85.187 9 89 12.813 89 17.5V85.5C89 90.187 85.187 94 80.5 94H22.5Z" fill="black"/>
<path d="M20.5 92C15.813 92 12 88.187 12 83.5V53.0596C12 51.7646 12.3818 50.5107 13.1045 49.4346L20 39.2017V15.5C20 10.813 23.813 7 28.5 7H78.5C83.187 7 87 10.813 87 15.5V83.5C87 88.187 83.187 92 78.5 92H20.5Z" fill="#F2F2F2"/>
<path fill-rule="evenodd" clip-rule="evenodd" d="M28.5 13.5C27.3954 13.5 26.5 14.3954 26.5 15.5V26.2261V41.1869L18.5 53.0598V83.5C18.5 84.6046 19.3954 85.5 20.5 85.5H78.5C79.6046 85.5 80.5 84.6046 80.5 83.5V15.5C80.5 14.3954 79.6046 13.5 78.5 13.5H28.5Z" fill="black" stroke="#40396E" stroke-width="3" stroke-miterlimit="10" stroke-linecap="round" stroke-linejoin="round"/>
<path d="M41 19H34V36H41V19Z" fill="#FFC571"/>
<path d="M52 19H45V36H52V19Z" fill="#FFC571"/>
<path d="M63 19H56V36H63V19Z" fill="#FFC571"/>
<path d="M74 19H67V36H74V19Z" fill="#FFC571"/>
</svg>
