<svg width="50" height="50" viewBox="0 0 50 50" fill="none" xmlns="http://www.w3.org/2000/svg">
<path d="M36.9844 2.00012C36.7227 2.00428 36.473 2.11087 36.2891 2.29699L28.0976 10.5841L27.3926 9.87902C26.8219 9.30832 26.0672 9.01206 25.3164 9.00012H25.3144H25.3125C24.533 8.98964 23.7432 9.28618 23.1504 9.87902L5.51561 27.5157C0.837474 32.1939 0.83734 39.8073 5.51561 44.4845L5.80858 44.7775H5.95702C10.6594 49.0724 17.9364 49.0324 22.4844 44.4845L40.1211 26.8497C41.2842 25.6867 41.2842 23.7706 40.1211 22.6075L39.416 21.9025L47.7031 13.7111C47.7968 13.6184 47.8712 13.5081 47.9221 13.3866C47.973 13.265 47.9994 13.1346 47.9998 13.0029C48.0002 12.8711 47.9745 12.7406 47.9242 12.6188C47.874 12.497 47.8002 12.3863 47.707 12.2931L37.707 2.29309C37.6123 2.19835 37.4996 2.12359 37.3754 2.07327C37.2513 2.02294 37.1183 1.99807 36.9844 2.00012ZM37.0039 4.41809L45.582 12.9962L38.0019 20.4884L29.5117 11.9982L37.0039 4.41809ZM36 8.00012L34 10.0001L36 12.0001L38 10.0001L36 8.00012ZM25.2851 11.0001C25.5397 11.0046 25.7837 11.0982 25.9785 11.2931L38.707 24.0216C39.1059 24.4205 39.1059 25.0367 38.707 25.4357L21.0703 43.0704C17.1564 46.9843 10.8436 46.9843 6.92967 43.0704C3.01595 39.1576 3.01581 32.8437 6.92967 28.9298L24.5644 11.2931C24.7671 11.0904 25.0232 10.997 25.2851 11.0001ZM40 12.0001L38 14.0001L40 16.0001L42 14.0001L40 12.0001ZM14.5 32.0001C12.5788 32.0001 11 33.579 11 35.5001C11 37.4213 12.5788 39.0001 14.5 39.0001C16.4211 39.0001 18 37.4213 18 35.5001C18 33.579 16.4211 32.0001 14.5 32.0001ZM14.5 34.0001C15.3403 34.0001 16 34.6598 16 35.5001C16 36.3404 15.3403 37.0001 14.5 37.0001C13.6597 37.0001 13 36.3404 13 35.5001C13 34.6598 13.6597 34.0001 14.5 34.0001Z" fill="black"/>
</svg>
