<svg width="50" height="50" viewBox="0 0 50 50" fill="none" xmlns="http://www.w3.org/2000/svg">
<path d="M13.5859 3L7 9.58594V45C7 46.0938 7.90625 47 9 47H40C41.0938 47 42 46.0938 42 45V5C42 3.90625 41.0938 3 40 3H13.5859ZM14.4141 5H40V45H9V10.4141L14.4141 5ZM16 7V14H18V7H16ZM21 7V14H23V7H21ZM26 7V14H28V7H26ZM31 7V14H33V7H31ZM36 7V14H38V7H36ZM13 8.84375L11 10.8477V14H13V8.84375ZM22.9258 36C22.4023 35.9961 22.0586 36.0156 22.0586 36.0156L21.7617 37.0117C21.7617 37.0117 22.6172 37.0117 23.3359 37.2266L24.875 36.1211C24.1523 36.0312 23.4492 36.0039 22.9258 36ZM21.0117 36.0156C21.0117 36.0156 18.6172 36.0859 17.0781 36.0898C15.5703 36.0898 13.8008 36.5859 13.8008 37.5117C13.8008 39.3281 16.9453 39.293 16.9453 40.0039C16.9453 40.4336 15.0469 40.2188 14.3906 40.2188C13.7031 40.2188 12.6211 40.0781 12.6211 40.0781L12 41.8594C12 41.8594 13.375 41.9648 15.2773 41.9648C15.8672 41.9648 16.4844 42 17.0781 41.9648C18.4531 41.8594 19.668 41.5 19.668 40.1445C19.668 38.1523 15.668 38.2578 15.668 37.4766C15.668 37.0469 16.7813 37.0469 17.207 37.0469H20.6836L21.0117 36.0156ZM26.2852 36.4062L23.957 37.4375C24.0547 37.4766 24.1562 37.543 24.2188 37.5781L26.875 36.6211C26.6758 36.5156 26.4805 36.4766 26.2852 36.4062ZM27.6914 36.9766L24.4492 37.9062C24.4805 38.0469 24.4805 38.1523 24.4492 38.2969C24.0898 39.5078 20.8789 39.6523 20.8789 39.6523L20.125 42C20.125 42 28.1875 41.9648 28.9727 38.7227C29.1367 38.1172 28.5781 37.4766 27.6914 36.9766Z" fill="black"/>
</svg>
